<svg width="14" height="13" viewBox="0 0 14 13" fill="none" xmlns="http://www.w3.org/2000/svg">
<path d="M8.88537 12.5229C8.78443 12.4892 8.68862 12.4417 8.60067 12.3817C7.56896 11.4175 6.37259 10.6854 5.20039 9.91426C4.49488 9.4539 3.80439 8.97608 3.12057 8.48319C2.14533 7.7811 1.39551 6.81034 0.962601 5.68935C0.470083 4.43278 0.635176 3.20551 1.3098 2.0577C1.49673 1.76285 1.74692 1.51329 2.04224 1.3271C2.6316 0.935026 3.31878 0.715395 4.02629 0.692974C4.83321 0.668878 5.56521 0.831384 6.0767 1.53029C6.15949 1.64361 6.25457 1.74741 6.36022 1.83979C6.75795 2.18546 7.22693 2.1743 7.54527 1.74852C8.11461 0.983503 8.87311 0.515159 9.75136 0.209399C10.6112 -0.0894697 11.4189 0.00825812 12.1513 0.534499C12.5308 0.787143 12.8699 1.09577 13.1571 1.4499C14.0669 2.6728 14.311 3.88744 13.3986 5.24505C12.8122 6.11576 12.1849 6.96443 11.5171 7.7735C10.4096 9.11506 9.50637 10.5532 9.04956 12.2507C9.00735 12.3484 8.95213 12.44 8.88537 12.5229Z" fill="#FF0F82"/>
</svg>
