<svg width="17" height="17" viewBox="0 0 17 17" fill="none" xmlns="http://www.w3.org/2000/svg">
<path d="M7.70069 2.52733C8.3961 2.05903 8.95499 1.63973 9.55377 1.28852C10.5746 0.689335 11.645 0.560781 12.7845 1.00683C14.8482 1.82881 15.9649 3.34311 16.2459 5.51609C16.4003 6.71317 15.8984 7.72191 15.2458 8.64904C14.5632 9.6259 13.7911 10.538 13.0796 11.4983C12.0971 12.8134 11.4187 14.2556 11.2411 15.9141C11.2057 16.2401 11.0027 16.5485 10.9019 16.8004C10.4404 16.9693 10.1256 16.9558 9.87705 16.6105C9.73182 16.415 9.55207 16.2444 9.39951 16.0535C8.73226 15.2256 7.90559 14.5845 7.03187 13.9913C5.72573 13.1069 4.37447 12.2896 3.14247 11.3009C2.11889 10.4852 1.2899 9.45173 0.715738 8.27555C0.0690902 6.9416 -0.034101 5.52289 0.556172 4.09057C1.23238 2.44525 3.56778 0.769035 5.96305 1.47082C6.45283 1.61416 6.88639 1.95588 7.33529 2.22091C7.46651 2.31126 7.58885 2.41386 7.70069 2.52733ZM9.88538 14.5229C9.95213 14.44 10.0074 14.3484 10.0496 14.2507C10.5084 12.5576 11.4096 11.1151 12.5172 9.7735C13.1849 8.96443 13.8137 8.11912 14.3987 7.24505C15.3145 5.89528 15.0669 4.6728 14.1571 3.44991C13.8699 3.09578 13.5308 2.78715 13.1513 2.5345C12.419 2.00826 11.6112 1.91053 10.7514 2.2094C9.86976 2.51667 9.11461 2.98351 8.54528 3.74852C8.22693 4.1743 7.75795 4.18546 7.36023 3.83979C7.25458 3.74742 7.15949 3.64362 7.07671 3.53029C6.56186 2.83289 5.83322 2.66888 5.02629 2.69298C4.31996 2.71472 3.63368 2.93303 3.0446 3.32337C2.74928 3.50955 2.49909 3.75911 2.31216 4.05396C1.63754 5.20178 1.47094 6.42569 1.96496 7.68561C2.3966 8.80767 3.14563 9.77977 4.12058 10.4832C4.80354 10.9832 5.49489 11.4539 6.19754 11.9169C7.36974 12.688 8.56611 13.4201 9.59782 14.3844C9.6868 14.4436 9.78358 14.4902 9.88538 14.5229Z" fill="#FF0F82"/>
</svg>
